<svg version="1.0" xmlns="http://www.w3.org/2000/svg" width="800" height="800" viewBox="-220 150 820 740" preserveAspectRatio="xMidYMid meet">
  <metadata>
    <rdf:RDF xmlns:rdf="http://www.w3.org/1999/02/22-rdf-syntax-ns#" xmlns:rdfs="http://www.w3.org/2000/01/rdf-schema#" xmlns:dc="http://purl.org/dc/elements/1.1/">
      <rdf:Description dc:format="image/svg+xml" dc:Label="1" dc:ContentProducer="001191330110MACRLGPT8B00000" dc:ProduceID="439129209" dc:ReservedCode1="aDkC5hafKGtZUYjYS391vvL4enzG+gJcpvizrW6I/ag=" dc:ContentPropagator="001191330110MACRLGPT8B00000" dc:PropagateID="439129209" dc:ReservedCode2="aDkC5hafKGtZUYjYS391vvL4enzG+gJcpvizrW6I/ag="/>
    </rdf:RDF>
  </metadata>
  <g transform="translate(113.272783,696.294017) scale(0.073420,-0.073420)" fill="#000000" stroke="none">
    <path d="M3515 6889 c-128 -15 -319 -56 -461 -99 -479 -143 -882 -382 -1196 -708 -438 -456 -718 -1068 -779 -1707 -15 -151 -6 -534 15 -673 52 -345 164 -688 333 -1027 121 -242 299 -471 520 -671 515 -465 928 -666 1643 -801 134 -26 164 -28 400 -28 236 0 267 3 414 29 531 94 941 300 1378 693 457 409 840 1087 907 1602 14 107 14 314 0 364 -8 30 -18 42 -46 54 -54 22 -326 32 -893 33 -467 0 -497 -1 -526 -19 -35 -22 -218 -174 -384 -320 -63 -55 -159 -137 -213 -182 -104 -85 -116 -102 -100 -128 24 -37 80 -41 700 -49 331 -5 605 -11 609 -14 14 -15 -76 -213 -158 -346 -204 -333 -481 -579 -862 -763 -429 -207 -869 -262 -1336 -168 -381 77 -773 301 -1100 629 -147 147 -220 242 -311 406 -123 221 -196 430 -251 721 -20 104 -22 150 -22 393 0 262 1 281 27 400 64 291 178 539 360 784 81 107 311 336 415 411 234 170 470 280 747 350 376 95 713 98 1066 9 176 -44 342 -111 532 -215 37 -20 65 -29 80 -25 28 7 470 359 515 410 44 50 41 75 -13 125 -148 137 -519 325 -819 416 -299 90 -478 116 -831 120 -154 2 -316 -1 -360 -6z m-1026 -500 c-23 -12 -196 -156 -204 -169 -4 -6 11 -10 42 -11 26 0 41 -3 33 -6 -55 -22 -168 -78 -183 -91 -17 -15 -17 -17 -2 -22 13 -4 0 -16 -46 -43 -35 -21 -102 -69 -149 -106 -47 -38 -87 -67 -89 -66 -12 12 176 220 298 330 122 108 195 161 261 186 45 17 70 16 39 -2z m2921 -137 c0 -17 -318 -263 -388 -301 -18 -10 -30 -5 -87 35 -36 25 -64 48 -62 50 2 3 24 0 48 -5 94 -22 154 -1 161 55 3 23 8 27 41 29 40 2 74 26 88 63 7 18 16 22 53 22 54 0 106 38 106 76 l0 24 20 -20 c11 -11 20 -24 20 -28z m-4032 -1257 c25 -114 25 -125 2 -125 -18 0 -20 -6 -21 -62 -1 -50 -2 -57 -9 -36 -14 47 -23 193 -15 259 7 58 8 61 20 38 7 -13 17 -46 23 -74z m5142 -1174 c17 -5 29 -18 37 -44 21 -62 33 -160 24 -192 l-8 -30 -7 40 c-3 22 -16 62 -28 88 -17 37 -26 47 -40 44 -13 -4 -18 1 -18 17 0 27 -35 46 -83 46 -18 0 -38 4 -46 9 -33 21 108 39 169 22z m-1510 -286 c0 -8 -7 -11 -20 -8 -16 4 -18 8 -9 19 13 16 29 10 29 -11z m-140 -80 c-7 -9 -11 -17 -9 -19 2 -2 47 -11 99 -21 52 -10 104 -22 115 -26 11 -4 -63 -8 -164 -8 -101 -1 -181 2 -177 7 4 4 33 24 64 44 61 40 95 50 72 23z m1048 -1217 c-117 -154 -342 -360 -543 -500 -159 -109 -471 -256 -639 -299 -81 -21 -98 -17 -35 7 86 34 211 105 331 189 129 89 206 157 300 265 l57 65 -6 -59 -6 -59 33 19 c45 26 183 156 225 214 19 26 59 86 90 135 30 48 55 79 55 69 0 -10 -11 -59 -25 -108 -14 -49 -22 -92 -19 -95 3 -3 58 49 122 117 64 67 118 122 120 122 2 0 -25 -37 -60 -82z"/>
    <path d="M6105 5651 c-303 -91 -578 -174 -612 -184 -72 -22 -96 -44 -91 -83 2 -23 19 -40 78 -81 41 -28 108 -68 148 -89 40 -21 71 -41 70 -45 -2 -4 -73 -74 -158 -155 -204 -195 -702 -676 -965 -934 -195 -190 -511 -487 -735 -691 -166 -151 -493 -421 -660 -543 -92 -68 -254 -158 -345 -192 -102 -38 -99 -37 -80 -50 31 -23 136 -27 275 -10 220 27 358 69 569 175 120 60 144 74 276 159 155 100 440 337 1150 957 83 72 263 227 400 345 138 118 345 299 462 403 116 103 215 188 220 188 10 1 9 3 103 -193 82 -170 103 -198 139 -179 32 18 79 140 169 441 240 804 264 932 169 929 -18 -1 -280 -76 -582 -168z m-181 -180 c-79 -28 -174 -73 -182 -85 -4 -6 -16 -16 -26 -22 -25 -14 -32 -34 -12 -34 9 0 16 -4 16 -9 0 -5 8 -12 18 -14 9 -2 -3 -3 -28 -2 -49 2 -140 42 -140 61 0 6 33 19 73 29 39 9 88 24 107 33 50 21 181 61 205 61 11 0 -3 -8 -31 -18z m491 -570 c-15 -61 -79 -218 -95 -235 -5 -5 -16 16 -24 45 -10 33 -13 55 -7 57 6 2 13 18 16 36 4 18 15 36 27 41 12 6 28 28 37 50 9 22 25 56 36 75 17 31 20 32 23 14 2 -12 -4 -49 -13 -83z m-3115 -2146 c0 -10 -77 -42 -114 -48 -31 -5 -37 -4 -27 6 21 21 141 57 141 42z"/>
    <path d="M3000 5359 c-63 -25 -135 -128 -151 -214 -18 -96 -50 -89 479 -96 307 -4 477 -10 517 -18 131 -28 225 -101 263 -205 43 -113 62 -325 62 -673 0 -224 2 -264 16 -277 8 -9 19 -16 24 -16 12 0 171 142 217 194 25 28 45 63 49 84 8 41 0 298 -21 664 -18 311 -27 343 -114 429 -39 38 -76 64 -117 79 -57 23 -74 24 -449 31 -214 4 -446 12 -515 18 -153 13 -227 13 -260 0z m106 -118 c-15 -17 -15 -19 -1 -25 9 -3 64 -6 122 -6 59 0 103 -3 99 -7 -20 -20 -104 -35 -229 -40 l-139 -6 16 31 c20 40 73 69 130 71 18 1 18 0 2 -18z m1087 -47 c37 -19 75 -51 88 -76 14 -25 5 -22 -33 10 -18 16 -53 41 -78 55 -49 29 -30 38 23 11z"/>
    <path d="M2677 4963 c-46 -13 -108 -66 -132 -112 -18 -36 -22 -138 -6 -154 9 -9 129 -13 454 -17 420 -6 445 -7 507 -28 69 -23 138 -71 176 -124 62 -84 77 -186 89 -593 9 -327 17 -475 26 -475 4 0 76 64 160 143 l152 142 -7 390 c-9 550 -19 631 -97 719 -50 56 -122 91 -219 105 -115 17 -1048 20 -1103 4z m98 -133 c-9 -15 -121 -70 -128 -64 -7 7 11 57 23 64 17 11 111 10 105 0z"/>
    <path d="M2270 4583 c-54 -35 -78 -69 -96 -137 -35 -129 -49 -843 -21 -1021 24 -145 52 -237 107 -350 129 -267 334 -415 520 -375 191 40 280 97 490 309 85 87 199 190 252 229 113 85 145 119 154 170 9 47 -3 646 -16 819 -12 156 -33 224 -89 281 -73 75 -95 78 -526 86 -209 3 -459 9 -555 12 l-175 6 -45 -29z m184 -93 c12 0 31 -7 42 -15 18 -15 18 -15 -8 -9 -20 4 -31 0 -45 -15 -19 -22 -43 -28 -43 -10 0 14 -57 2 -88 -18 -31 -19 -37 -11 -18 26 22 42 44 52 95 46 24 -3 54 -5 65 -5z m698 -219 c46 -14 94 -53 114 -93 26 -50 37 -282 30 -628 -3 -173 -9 -331 -12 -350 -9 -48 -173 -215 -285 -290 -155 -103 -272 -125 -386 -71 -97 46 -170 128 -247 277 -70 137 -97 301 -112 679 -6 163 7 463 22 486 9 16 824 6 876 -10z"/>
    <path d="M2529 3842 c-66 -2 -79 -6 -100 -28 -19 -20 -21 -29 -13 -51 18 -51 32 -53 375 -51 298 3 318 4 338 22 28 25 24 63 -9 87 -22 16 -53 18 -270 21 -135 2 -279 2 -321 0z"/>
    <path d="M2418 3529 c-35 -26 -38 -71 -6 -93 19 -13 60 -16 244 -16 209 0 223 1 248 21 15 12 26 30 26 44 0 14 -11 32 -26 44 -25 20 -39 21 -243 21 -202 -1 -218 -2 -243 -21z"/>
    <path d="M2490 3080 c-8 -5 -25 -10 -37 -10 -13 0 -23 -4 -23 -10 0 -5 6 -10 14 -10 8 0 16 -3 18 -8 2 -4 22 -22 46 -40 29 -24 42 -29 42 -19 0 12 16 15 88 14 48 0 129 2 179 5 82 5 100 10 159 43 36 20 63 39 60 42 -3 3 -11 1 -18 -4 -7 -6 -41 -21 -74 -33 -54 -19 -75 -21 -175 -16 -63 3 -127 7 -144 10 -16 2 -40 5 -52 5 -12 1 -24 9 -28 21 -7 21 -31 26 -55 10z"/>
  </g>
</svg>